<?xml version="1.0" encoding="iso-8859-1"?>
<!-- Generator: Adobe Illustrator 19.0.0, SVG Export Plug-In . SVG Version: 6.00 Build 0)  -->
<svg version="1.1" id="Layer_1" xmlns="http://www.w3.org/2000/svg" xmlns:xlink="http://www.w3.org/1999/xlink" x="0px" y="0px"
	 viewBox="0 0 511.97 511.97" style="enable-background:new 0 0 511.97 511.97;" xml:space="preserve">
<path style="fill:#E6E9ED;" d="M256.055,511.913c-34.545,0-68.074-6.781-99.635-20.124c-30.467-12.89-57.841-31.343-81.324-54.841
	c-23.515-23.499-41.967-50.873-54.856-81.34c-13.343-31.561-20.108-65.09-20.108-99.627c0-34.545,6.765-68.06,20.108-99.612
	c12.89-30.475,31.342-57.849,54.856-81.347c23.483-23.499,50.856-41.959,81.324-54.842c31.577-13.351,65.09-20.123,99.635-20.123
	h-0.016c0.016,0,0.016,0,0.016,0l0,0l0,0c34.553,0,68.066,6.772,99.628,20.123c30.468,12.883,57.841,31.335,81.354,54.834
	c23.484,23.498,41.936,50.872,54.826,81.347c13.358,31.561,20.107,65.075,20.107,99.62c0,34.537-6.749,68.066-20.107,99.627
	c-12.891,30.467-31.342,57.841-54.826,81.34c-23.514,23.498-50.887,41.951-81.354,54.841
	C324.122,505.131,290.608,511.913,256.055,511.913z"/>
<g>
	<path style="fill:#434A54;" d="M329.887,191.898l-102.643-33.342c-4.391-1.422-9.187,0.141-11.906,3.875l-63.418,87.284
		c-2.719,3.742-2.719,8.805,0,12.538l63.418,87.293c2.047,2.812,5.265,4.405,8.609,4.405c1.109,0,2.219-0.188,3.297-0.531
		l102.643-33.342c4.391-1.438,7.359-5.531,7.359-10.155V202.047C337.247,197.422,334.278,193.328,329.887,191.898z"/>
	<path style="fill:#434A54;" d="M34.848,169.047c-2.718-3.733-7.531-5.296-11.937-3.866l-2,0.656
		c-3.188,1.023-5.703,3.491-6.781,6.655c-0.515,1.461-1,2.93-1.484,4.398c-17.343,53.427-16.843,109.643,1.468,162.593
		c1.094,3.156,3.609,5.625,6.781,6.656l2.031,0.656c1.078,0.344,2.187,0.531,3.296,0.531c3.344,0,6.578-1.594,8.625-4.406
		l58.606-80.668c2.719-3.733,2.719-8.796,0-12.538L34.848,169.047z"/>
	<path style="fill:#434A54;" d="M211.777,412.558c-2.718-3.733-7.531-5.296-11.921-3.874l-94.839,30.811
		c-4.391,1.422-7.375,5.516-7.375,10.141v2.124c0,3.344,1.578,6.484,4.25,8.499c1.234,0.938,2.469,1.859,3.734,2.766
		c44.013,31.983,95.963,48.889,150.226,48.889c1.609,0,3.234,0,4.859-0.031c3.344-0.062,6.453-1.688,8.422-4.406l1.25-1.719
		c2.727-3.734,2.727-8.797,0-12.53L211.777,412.558z"/>
	<path style="fill:#434A54;" d="M499.3,321.266l-1.25-1.719c-2.718-3.75-7.53-5.312-11.937-3.891l-94.823,30.827
		c-4.406,1.406-7.374,5.515-7.374,10.124v99.714c0,4.624,2.968,8.718,7.374,10.155l2,0.656c1.078,0.344,2.188,0.5,3.296,0.5
		c2.156,0,4.297-0.656,6.109-1.906c1.266-0.891,2.531-1.781,3.797-2.703c45.436-33.014,78.074-78.792,94.37-132.383
		C501.847,327.423,501.254,323.954,499.3,321.266z"/>
	<path style="fill:#434A54;" d="M391.275,165.478l94.839,30.818c1.078,0.352,2.188,0.523,3.297,0.523
		c3.344,0,6.578-1.586,8.624-4.406l1.25-1.711c1.969-2.703,2.547-6.179,1.562-9.374c-0.453-1.477-0.906-2.953-1.391-4.43
		c-17.358-53.419-50.825-98.604-96.761-130.673c-2.734-1.914-6.219-2.43-9.39-1.398l-2.031,0.656
		c-4.391,1.43-7.374,5.523-7.374,10.148v99.705C383.901,159.955,386.884,164.056,391.275,165.478z"/>
	<path style="fill:#434A54;" d="M105.001,72.475l94.839,30.811c1.093,0.352,2.203,0.523,3.296,0.523
		c3.344,0,6.578-1.586,8.625-4.398l58.607-80.667c2.727-3.734,2.727-8.797,0-12.539l-1.234-1.711
		c-1.969-2.703-5.094-4.327-8.438-4.39c-1.547-0.031-3.094-0.047-4.641-0.047c-0.016,0,0,0-0.016,0
		c-56.153,0-109.463,17.866-154.164,51.646c-2.672,2.016-4.234,5.163-4.234,8.499v2.125
		C97.642,66.952,100.611,71.046,105.001,72.475z"/>
</g>
<path style="opacity:0.2;fill:#FFFFFF;enable-background:new    ;" d="M491.864,156.361c-12.891-30.475-31.342-57.849-54.826-81.347
	c-23.514-23.499-50.887-41.951-81.354-54.834C324.122,6.83,290.608,0.057,256.055,0.057l0,0c-3.578,0-7.125,0.078-10.671,0.219
	c30.788,1.249,60.662,7.929,88.972,19.904c30.467,12.883,57.841,31.335,81.34,54.834c23.498,23.498,41.951,50.872,54.84,81.347
	c13.359,31.561,20.125,65.075,20.125,99.62c0,34.537-6.766,68.066-20.125,99.627c-12.889,30.467-31.342,57.841-54.84,81.34
	c-23.499,23.498-50.873,41.951-81.34,54.841c-28.311,11.968-58.185,18.655-88.972,19.905c3.546,0.141,7.093,0.219,10.671,0.219
	c34.553,0,68.066-6.781,99.628-20.124c30.468-12.89,57.841-31.343,81.354-54.841c23.484-23.499,41.936-50.873,54.826-81.34
	c13.358-31.561,20.107-65.09,20.107-99.627C511.971,221.436,505.222,187.922,491.864,156.361z"/>
<g>
</g>
<g>
</g>
<g>
</g>
<g>
</g>
<g>
</g>
<g>
</g>
<g>
</g>
<g>
</g>
<g>
</g>
<g>
</g>
<g>
</g>
<g>
</g>
<g>
</g>
<g>
</g>
<g>
</g>
</svg>
